<?xml version="1.0" encoding="UTF-8"?>
<svg width="1920px" height="619px" viewBox="0 0 1920 619" version="1.1" xmlns="http://www.w3.org/2000/svg" xmlns:xlink="http://www.w3.org/1999/xlink">
    <!-- Generator: Sketch 52.5 (67469) - http://www.bohemiancoding.com/sketch -->
    <title>bayes-logo</title>
    <desc>Created with Sketch.</desc>
    <g id="v0.1" stroke="none" stroke-width="1" fill="none" fill-rule="evenodd">
        <g id="icon-(blue)-copy-3" transform="translate(0.000000, -221.000000)">
            <g id="bayes-logo" transform="translate(0.000000, 240.000000)">
                <g id="logotype" transform="translate(810.000000, 0.000000)" fill-rule="nonzero">
                    <path d="M161.140302,-2.17297207 L306.614902,251.679911 C310.272877,258.06307 308.063679,266.203017 301.68052,269.860992 C299.664329,271.016404 297.380962,271.624293 295.057171,271.624293 L4.10796891,271.624293 C-3.24903448,271.624293 -9.2130641,265.660264 -9.2130641,258.30326 C-9.2130641,255.979469 -8.60517474,253.696102 -7.44976271,251.679911 L138.024838,-2.17297207 C141.682813,-8.55613099 149.822761,-10.7653291 156.20592,-7.10735407 C158.259961,-5.93025143 159.963199,-4.22701378 161.140302,-2.17297207 Z" id="Polygon" stroke="#EEA3C7" stroke-width="20" fill-opacity="0" fill="#D8D8D8"></path>
                    <polygon id="Rectangle-Copy" fill="#EEA3C7" transform="translate(114.106565, 238.476250) rotate(30.000000) translate(-114.106565, -238.476250) " points="104.106565 200.638412 124.106565 200.638412 124.106565 276.314088 104.106565 276.314088"></polygon>
                    <polygon id="Rectangle-Copy-2" fill="#EEA3C7" transform="translate(189.106565, 113.611385) rotate(30.000000) translate(-189.106565, -113.611385) " points="179.106565 79.5573309 199.106565 79.5573309 199.106565 147.665439 179.106565 147.665439"></polygon>
                    <ellipse id="Oval-2" stroke="#EEA3C7" stroke-width="20" fill-opacity="0" fill="#FFFFFF" cx="149.446494" cy="169.712007" rx="34.2804428" ry="34.6610545"></ellipse>
                </g>
                <g id="logo-text" transform="translate(0.000000, 460.000000)" fill="#0E3A5B">
                    <path d="M98.24,98.2523077 C98.24,84.7861538 87.636,78.8215385 68.028,78.8215385 L26.0104,78.8215385 L26.0104,117.683846 L68.028,117.683846 C87.636,117.683846 98.24,111.72 98.24,98.2523077 Z M26.0104,22.26 L26.0104,59.3907692 L62.8256,59.3907692 C80.8328,59.3907692 91.0368,53.2338462 91.0368,40.9215385 C91.0368,28.4161538 80.8328,22.26 62.8256,22.26 L26.0104,22.26 Z M124.4512,100.753846 C124.4512,123.84 105.6432,137.306923 69.628,137.306923 L0,137.306923 L0,2.63692308 L65.6264,2.63692308 C99.2408,2.63692308 117.248,16.2953846 117.248,37.6507692 C117.248,51.5030769 110.0448,61.7 99.2408,67.2792308 C114.2464,71.8953846 124.4512,83.2469231 124.4512,100.753846 Z" id="Fill-3"></path>
                    <path d="M269.7248,86.5169231 L243.3144,27.6469231 L217.1032,86.5169231 L269.7248,86.5169231 Z M278.328,106.140769 L208.3,106.140769 L194.4936,137.306923 L167.6832,137.306923 L230.7088,2.63692308 L256.3192,2.63692308 L319.5448,137.306923 L292.3344,137.306923 L278.328,106.140769 Z" id="Fill-4"></path>
                    <polyline id="Fill-5" points="418.3024 89.7876923 418.3024 137.306923 392.292 137.306923 392.292 90.1730769 337.2688 2.63692308 365.08 2.63692308 406.0968 68.2407692 447.5144 2.63692308 473.1248 2.63692308 418.3024 89.7876923"></polyline>
                    <polyline id="Fill-6" points="631.7072 116.336923 631.7072 137.306923 526.664 137.306923 526.664 2.63692308 628.9056 2.63692308 628.9056 23.6069231 552.6744 23.6069231 552.6744 58.6207692 620.3024 58.6207692 620.3024 79.2069231 552.6744 79.2069231 552.6744 116.336923 631.7072 116.336923"></polyline>
                    <path d="M685.3464,123.070769 L694.3504,103.639231 C705.5544,112.296154 723.3616,118.453077 740.5688,118.453077 C762.3776,118.453077 771.5816,110.95 771.5816,100.945385 C771.5816,71.8953846 688.3472,90.9423077 688.3472,40.9215385 C688.3472,19.1815385 706.3552,0.713076923 744.7704,0.713076923 C761.5776,0.713076923 779.1848,4.94538462 791.3896,12.6407692 L783.1864,32.0715385 C770.5816,24.9530769 756.7752,21.49 744.5704,21.49 C722.9616,21.49 714.1584,29.57 714.1584,39.7669231 C714.1584,68.4330769 797.192,49.7707692 797.192,99.2146154 C797.192,120.762308 778.9848,139.230769 740.5688,139.230769 C718.76,139.230769 696.9512,132.69 685.3464,123.070769" id="Fill-7"></path>
                    <polygon id="Fill-8" points="958.248 137.306923 984.264 137.306923 984.264 2.63692308 958.248 2.63692308"></polygon>
                    <polyline id="Fill-9" points="1185.32 137.306923 1185.12 48.04 1139.104 121.916154 1127.496 121.916154 1081.48 49.1946154 1081.48 137.306923 1056.664 137.306923 1056.664 2.63692308 1078.072 2.63692308 1133.696 91.9038462 1188.32 2.63692308 1209.728 2.63692308 1209.928 137.306923 1185.32 137.306923"></polyline>
                    <path d="M1373.952,50.5415385 C1373.952,33.6107692 1362.144,23.7984615 1339.336,23.7984615 L1308.928,23.7984615 L1308.928,77.2830769 L1339.336,77.2830769 C1362.144,77.2830769 1373.952,67.4707692 1373.952,50.5415385 Z M1400.16,50.5415385 C1400.16,80.1684615 1377.352,98.4446154 1340.536,98.4446154 L1308.928,98.4446154 L1308.928,137.306923 L1282.912,137.306923 L1282.912,2.63692308 L1340.536,2.63692308 C1377.352,2.63692308 1400.16,20.7207692 1400.16,50.5415385 Z" id="Fill-10"></path>
                    <path d="M1534.272,86.5169231 L1507.864,27.6469231 L1481.648,86.5169231 L1534.272,86.5169231 Z M1542.88,106.140769 L1472.848,106.140769 L1459.04,137.306923 L1432.232,137.306923 L1495.256,2.63692308 L1520.872,2.63692308 L1584.096,137.306923 L1556.88,137.306923 L1542.88,106.140769 Z" id="Fill-11"></path>
                    <path d="M1621.288,69.9715385 C1621.288,29.7630769 1653.296,0.713076923 1696.312,0.713076923 C1719.128,0.713076923 1738.736,8.60076923 1751.736,23.2215385 L1734.936,38.42 C1724.728,27.8392308 1712.12,22.6438462 1697.52,22.6438462 C1668.504,22.6438462 1647.496,42.2684615 1647.496,69.9715385 C1647.496,97.6746154 1668.504,117.299231 1697.52,117.299231 C1712.12,117.299231 1724.728,112.104615 1734.936,101.330769 L1751.736,116.721538 C1738.736,131.343077 1719.128,139.230769 1696.112,139.230769 C1653.296,139.230769 1621.288,110.18 1621.288,69.9715385" id="Fill-12"></path>
                    <polyline id="Fill-13" points="1847.192 23.7984615 1800.776 23.7984615 1800.776 2.63692308 1919.624 2.63692308 1919.624 23.7984615 1873.2 23.7984615 1873.2 137.306923 1847.192 137.306923 1847.192 23.7984615"></polyline>
                </g>
            </g>
        </g>
    </g>
</svg>