<svg xmlns="http://www.w3.org/2000/svg" width="41" height="41" viewBox="0 0 41 41">
    <g fill="none">
        <path fill="#000" d="M30.75 4.1h8.2c.543 0 1.065.216 1.45.6.384.385.6.906.6 1.45v32.796c0 .553-.216 1.07-.6 1.451-.385.382-.907.603-1.45.603H2.05c-.543 0-1.065-.221-1.449-.603C.216 40.016 0 39.5 0 38.946V6.15c0-.544.216-1.065.601-1.45.384-.384.906-.6 1.45-.6h8.2V0h4.1v4.1H26.65V0h4.1v4.1zm6.15 12.3V8.2h-6.15v4.1h-4.1V8.2h-12.3v4.1h-4.1V8.2H4.1v8.2h32.8zm0 4.1H4.1v16.4h32.8V20.5z"/>
        <path fill="#0CED71" d="M8 25L18 25 18 33 8 33z"/>
    </g>
</svg>
