<svg xmlns="http://www.w3.org/2000/svg" width="34" height="36" viewBox="0 0 34 36">
    <g fill="#FFF">
        <path d="M25.76 14.22c1.037.187 1.845.703 2.338 1.495.619.993.718 2.387.277 3.924-.063.218-.137.425-.222.624-.752 1.773-2.36 2.89-3.993 2.89-.323 0-.648-.044-.968-.136-.398-.114-.627-.53-.514-.927.115-.398.533-.627.927-.514 1.206.35 2.564-.471 3.168-1.897.061-.145.116-.298.162-.456.317-1.106.277-2.096-.109-2.717-.27-.433-.706-.699-1.33-.81-.918-.164-1.995.18-2.323 1.328-.114.398-.529.628-.927.514-.398-.113-.628-.529-.514-.926.119-.416.307-.786.545-1.108l-7.952 4.254 1.207 5.704h12.956c2.841-2.51 5.178-7.28 5.178-11.239 0-1.51-.26-3.003-.718-4.425l-8.195 4.381c.327-.023.661-.02 1.008.042z"/>
        <circle cx="9.752" cy="20.702" r="1"/>
        <circle cx="6.536" cy="19.656" r="1"/>
        <circle cx="12.031" cy="23.121" r="1"/>
        <circle cx="12.5" cy="26.305" r="1"/>
        <path d="M15.852 26.975l-5.56 6.242c-1.426-.188-6.314-1.198-7.869-6.308-1.708-5.613 1.42-9.5 2.486-10.617l7.776 2.645L32.41 8.386C30.353 3.689 25.93.094 20.49.048c-5.922-.05-11.924 3.81-13.126 9.954-.252 1.088-.537 3.933-.537 3.933l-.723 1.022-1.597-.543-.358.315c-.23.203-5.616 5.059-3.303 12.66 2.127 6.992 9.656 7.509 9.732 7.514l.399.023 2.74-3.076v3.202h14.225l.092-8.09H15.85l.002.013zM11.64 12.491c.795 0 1.437.642 1.437 1.436 0 .794-.642 1.437-1.437 1.437-.793 0-1.436-.643-1.436-1.437s.643-1.436 1.436-1.436z"/>
    </g>
</svg>
