<svg xmlns="http://www.w3.org/2000/svg" width="28" height="24" viewBox="0 0 28 24">
    <g fill="#030303" fill-rule="evenodd">
        <path d="M16.877 15.966h-1.339v7.363H9.514V13.29c0-.988-.54-1.841-1.337-2.305v-1.73c0-1.25.757-1.99 2.006-1.99H14.2c1.249 0 2.677.74 2.677 1.99v6.712zM12.19 5.926c-1.478 0-2.677-1.199-2.677-2.678 0-1.478 1.199-2.677 2.677-2.677 1.479 0 2.678 1.199 2.678 2.677 0 1.48-1.199 2.678-2.678 2.678zM6.837 17.974v5.355H1.482v-5.355H.143l.003-4.034c0-1.25.756-1.99 2.005-1.99h4.016c1.25 0 2.009.74 2.009 1.99v4.034h-1.34zm-2.678-7.363c-1.109 0-2.008-.899-2.008-2.008 0-1.11.899-2.008 2.008-2.008 1.11 0 2.008.899 2.008 2.008 0 1.11-.899 2.008-2.008 2.008z"/>
        <path fill-rule="nonzero" d="M22.887 5.926h.015c1.478 0 2.677-1.199 2.677-2.678 0-1.478-1.199-2.677-2.677-2.677h-.015c-1.48 0-2.678 1.199-2.678 2.677 0 1.48 1.199 2.678 2.678 2.678zM24.924 7.266l-.014-.001h-4.046c-1.242.012-2.649.749-2.649 1.99v6.711h1.34v7.363h6.677v-7.363h1.34V9.255c0-1.241-1.406-1.978-2.648-1.99z"/>
    </g>
</svg>
