<svg xmlns="http://www.w3.org/2000/svg" width="121" height="74" viewBox="0 0 121 74">
    <g fill="none" fill-rule="evenodd" transform="translate(1.54 1)">
        <rect width="2" height="15" x="59.46" y="5" fill="#D8D8D8" rx="1"/>
        <rect width="2" height="15" x="91.906" y="20.625" fill="#D8D8D8" rx="1" transform="rotate(51 92.906 28.125)"/>
        <rect width="2" height="15" x="99.919" y="55.735" fill="#D8D8D8" rx="1" transform="rotate(103 100.919 63.235)"/>
        <rect width="2" height="15" x="19" y="55.735" fill="#D8D8D8" rx="1" transform="rotate(-103 20 63.235)"/>
        <rect width="2" height="15" x="27.014" y="20.625" fill="#D8D8D8" rx="1" transform="rotate(-51 28.014 28.125)"/>
        <rect width="2" height="7" x="75.235" y="16.67" fill="#464646" rx="1" transform="rotate(26 76.235 20.17)"/>
        <rect width="2" height="7" x="95.397" y="42.212" fill="#464646" rx="1" transform="rotate(77 96.397 45.712)"/>
        <rect width="2" height="7" x="22.278" y="41.848" fill="#464646" rx="1" transform="rotate(-77 23.278 45.348)"/>
        <rect width="2" height="7" x="42.694" y="16.507" fill="#464646" rx="1" transform="rotate(-25 43.694 20.007)"/>
        <circle cx="85.46" cy="2" r="2" fill="#D8D8D8" fill-opacity="0" stroke="silver"/>
        <circle cx="116.46" cy="41" r="2" fill="#D8D8D8" fill-opacity="0" stroke="silver"/>
        <circle cx="34.46" cy="2" r="2" fill="#D8D8D8" fill-opacity="0" stroke="silver"/>
        <circle cx="2.46" cy="41" r="2" fill="#D8D8D8" fill-opacity="0" stroke="silver"/>
        <path fill="#FF8080" fill-rule="nonzero" stroke="#FFF" stroke-width="2" d="M76.796 36.726c-2.316-2.359-5.327-3.605-8.377-3.718-2.785-.102-5.604.74-7.96 2.547-2.354-1.808-5.173-2.65-7.959-2.547-3.05.113-6.06 1.36-8.377 3.718-2.306 2.349-3.534 5.406-3.657 8.513-.123 3.12.87 6.29 2.998 8.835L60.46 71.43l16.97-17.38c2.14-2.531 3.138-5.692 3.019-8.808-.118-3.105-1.346-6.165-3.654-8.516z"/>
    </g>
</svg>
