<?xml version="1.0" encoding="UTF-8"?>
<svg width="2604px" height="390px" viewBox="0 0 2604 390" version="1.1" xmlns="http://www.w3.org/2000/svg" xmlns:xlink="http://www.w3.org/1999/xlink">
    <title>Group 19</title>
    <defs>
        <path d="M0.6,3.701 L44.8,65.2 C56.6,81.7 60.1,86.4 60.9,87.6 L60.9,87.6 L61.1,87.901 C61.9,89 64.8,93 74.4,106.4 L74.4,106.4 L118.6,167.901 C119.5,169.3 120.5,170.8 121.5,172.2 L121.5,172.2 C142.8,201.8 176.3,217.501 210.4,217.501 L210.4,217.501 C232.4,217.501 254.5,210.901 273.7,197.3 L273.7,197.3 C322.6,162.501 334,94.7 299,46.1 L299,46.1 C277.699,16.5 244.2,0.8 210.101,0.8 L210.101,0.8 C188.1,0.8 166,7.401 146.799,21.001 L146.799,21.001 C135.4,29.1 126,39 118.8,50.101 L118.8,50.101 C117.9,48.701 116.9,47.2 115.9,45.8 L115.9,45.8 C94.699,16.1 61.2,0.401 27.2,0.401 L27.2,0.401 C18.3,0.401 9.4,1.501 0.6,3.701 L0.6,3.701 Z M171.9,136.401 C156.7,115.3 161.699,85.9 182.899,70.9 L182.899,70.9 C191.199,65 200.8,62.2 210.3,62.2 L210.3,62.2 C225.1,62.2 239.6,69.001 248.8,81.8 L248.8,81.8 C264,102.9 259,132.3 237.8,147.3 L237.8,147.3 C229.5,153.1 219.9,156.001 210.4,156.001 L210.4,156.001 C195.6,156.001 181.101,149.2 171.9,136.401 L171.9,136.401 Z" id="path-1"></path>
        <path d="M45.601,9 C-3.3,43.9 -14.6,112 20.3,160.901 L20.3,160.901 C41.6,190.6 75.1,206.401 109.1,206.401 L109.1,206.401 C131,206.401 153.2,199.8 172.4,186.1 L172.4,186.1 C176.7,183.1 180.601,179.7 184.3,176.201 L184.3,176.201 L147.5,124.8 C144.5,129.001 140.9,132.7 136.5,135.901 L136.5,135.901 C128.2,141.8 118.6,144.7 109.1,144.7 L109.1,144.7 C94.3,144.7 79.8,137.8 70.6,125 L70.6,125 C55.4,103.8 60.4,74.3 81.6,59.201 L81.6,59.201 C86,56.101 90.8,53.8 95.7,52.3 L95.7,52.3 L58.8,0.9 C54.3,3.2 49.9,5.901 45.601,9 L45.601,9 Z" id="path-3"></path>
        <path d="M1045.4,38.101 C1045.4,58.401 1062.399,75.4 1082.699,75.4 L1082.699,75.4 C1103,75.4 1119.999,58.401 1119.999,38.101 L1119.999,38.101 C1119.999,17.8 1103,0.8 1082.699,0.8 L1082.699,0.8 C1062.399,0.8 1045.4,17.8 1045.4,38.101 L1045.4,38.101 Z M1165.499,93.8 L1137.699,93.8 L1137.699,153.5 L1165.499,153.5 L1165.499,301.001 L1227.699,301.001 L1227.699,153.4 L1266.3,153.4 L1266.3,93.701 L1227.699,93.701 C1227.699,69.601 1242.999,62.6 1266.3,64.701 L1266.3,64.701 L1266.3,5.001 C1262.638,4.782 1259.072,4.674 1255.617,4.674 L1255.617,4.674 C1194.174,4.671 1165.499,38.793 1165.499,93.8 L1165.499,93.8 Z M918.7,54.301 L918.7,93.701 L885.499,93.701 L885.499,153.4 L918.7,153.4 L918.7,226.8 C918.7,284.8 942.3,309.3 1023.6,301.001 L1023.6,301.001 L1023.6,244.6 C996.199,246.3 980.9,244.6 980.9,226.8 L980.9,226.8 L980.9,153.4 L1023.6,153.4 L1023.6,93.701 L980.9,93.701 L980.9,35.6 L918.7,54.301 Z M661.4,197.3 C661.4,259.099 710.3,306.8 771.3,306.8 L771.3,306.8 C832.3,306.8 881.199,259.099 881.199,197.3 L881.199,197.3 C881.199,135.5 832.3,87.8 771.3,87.8 L771.3,87.8 C710.3,87.8 661.4,135.5 661.4,197.3 L661.4,197.3 Z M723.6,197.3 C723.6,167.901 744.3,148.4 771.3,148.4 L771.3,148.4 C798.299,148.4 818.999,167.901 818.999,197.3 L818.999,197.3 C818.999,226.8 798.299,246.2 771.3,246.2 L771.3,246.2 C744.3,246.2 723.6,226.7 723.6,197.3 L723.6,197.3 Z M204.4,197.3 C204.4,259.099 253.3,306.8 314.3,306.8 L314.3,306.8 C375.3,306.8 424.199,259.099 424.199,197.3 L424.199,197.3 C424.199,135.5 375.3,87.8 314.3,87.8 L314.3,87.8 C253.3,87.8 204.4,135.5 204.4,197.3 L204.4,197.3 Z M266.6,197.3 C266.6,167.901 287.3,148.4 314.3,148.4 L314.3,148.4 C341.299,148.4 361.999,167.901 361.999,197.3 L361.999,197.3 C361.999,226.8 341.299,246.2 314.3,246.2 L314.3,246.2 C287.3,246.2 266.6,226.7 266.6,197.3 L266.6,197.3 Z M0.6,197.3 C0.6,259.099 47.5,306.8 110.5,306.8 L110.5,306.8 C151.1,306.8 186.4,285.6 204.2,253.3 L204.2,253.3 L149.9,222.201 C143.3,236.7 127.9,245.401 109.7,245.401 L109.7,245.401 C82.699,245.401 62.8,225.901 62.8,197.3 L62.8,197.3 C62.8,168.7 82.699,149.2 109.7,149.2 L109.7,149.2 C127.9,149.2 142.9,157.9 149.9,172.4 L149.9,172.4 L204.2,140.9 C186.4,109 150.699,87.8 110.5,87.8 L110.5,87.8 C47.5,87.8 0.6,135.5 0.6,197.3 L0.6,197.3 Z M505.4,113.201 L505.4,93.701 L443.199,93.701 L443.199,301.001 L505.4,301.001 L505.4,187.8 C505.4,158.401 521.199,145.1 544,145.1 L544,145.1 C563.899,145.1 580.1,157.101 580.1,182.8 L580.1,182.8 L580.1,301.001 L642.3,301.001 L642.3,173.701 C642.3,117.7 606.6,87.901 564.7,87.901 L564.7,87.901 C537.299,87.901 516.6,97.9 505.4,113.201 L505.4,113.201 Z M1051.599,301.001 L1113.8,301.001 L1113.8,93.6 L1051.599,93.6 L1051.599,301.001 Z M1429.7,93.701 L1390.699,220.599 L1344.699,93.701 L1276.3,93.701 L1358.8,291.501 C1349.699,316.8 1335.999,325.901 1306.999,325.901 L1306.999,325.901 L1306.999,384 C1365.1,386.8 1402,360.701 1425.199,294.8 L1425.199,294.8 L1496.1,93.701 L1429.7,93.701 Z" id="path-5"></path>
    </defs>
    <g id="Page-1" stroke="none" stroke-width="1" fill="none" fill-rule="evenodd">
        <g id="Group-19">
            <g id="Group-3" transform="translate(80.000000, 87.000000)">
                <mask id="mask-2" fill="white">
                    <use xlink:href="#path-1"></use>
                </mask>
                <g id="Clip-2"></g>
                <polygon id="Fill-1" fill="#000000" mask="url(#mask-2)" points="-14.4 232.4 334.3 232.4 334.3 -14.6 -14.4 -14.6"></polygon>
            </g>
            <g id="Group-6" transform="translate(0.000000, 98.000000)">
                <mask id="mask-4" fill="white">
                    <use xlink:href="#path-3"></use>
                </mask>
                <g id="Clip-5"></g>
                <polygon id="Fill-4" fill="#0CED71" mask="url(#mask-4)" points="-15 221.3 199.3 221.3 199.3 -14.1 -15 -14.1"></polygon>
            </g>
            <g id="Group-9" transform="translate(442.000000, 0.000000)">
                <mask id="mask-6" fill="white">
                    <use xlink:href="#path-5"></use>
                </mask>
                <g id="Clip-8"></g>
                <polygon id="Fill-7" fill="#000000" mask="url(#mask-6)" points="-14.4 399.099 1511.1 399.099 1511.1 -14.3 -14.4 -14.3"></polygon>
            </g>
            <g id="Group-18" transform="translate(1913.000000, 88.000000)" fill="#000000">
                <path d="M0.6001,179.5996 C0.6001,158.0996 18.3001,140.4006 39.8001,140.4006 C61.3001,140.4006 78.9991,158.0996 78.9991,179.5996 C78.9991,201.0996 61.3001,218.7996 39.8001,218.7996 C18.3001,218.7996 0.6001,200.9996 0.6001,179.5996" id="Fill-10"></path>
                <path d="M246.9995,109.7998 C246.9995,80.4998 226.3995,61.0998 199.6005,61.0998 C172.8005,61.0998 152.2005,80.4998 152.2005,109.7998 C152.2005,139.0998 172.8005,158.4998 199.6005,158.4998 C226.3995,158.4998 246.9995,139.0998 246.9995,109.7998 M90.1995,109.7998 C90.1995,48.2998 138.8995,0.8998 199.4995,0.8998 C260.1005,0.8998 308.8005,48.2998 308.8005,109.7998 C308.8005,171.2998 260.1005,218.699958 199.4995,218.699958 C138.8995,218.7998 90.1995,171.2998 90.1995,109.7998" id="Fill-12"></path>
                <path d="M460.4995,2.6001 L460.4995,72.7001 C434.8995,68.6001 398.6005,78.9001 398.6005,119.7001 L398.6005,213.0001 L336.7005,213.0001 L336.7005,6.7001 L398.6005,6.7001 L398.6005,43.4001 C406.8995,15.8001 434.4995,2.6001 460.4995,2.6001" id="Fill-14"></path>
                <path d="M630.1997,105.7002 C630.1997,77.2002 609.5997,57.8002 580.3007,57.8002 C551.0007,57.8002 530.3997,77.2002 530.3997,105.7002 C530.3997,134.2002 551.0007,153.5992 580.3007,153.5992 C609.5997,153.5992 630.1997,134.2002 630.1997,105.7002 L630.1997,105.7002 Z M690.3997,6.7002 L690.3997,202.7002 C690.3997,272.0002 636.3997,301.3002 581.4997,301.3002 C538.5997,301.3002 502.6997,285.2002 483.6997,251.4002 L536.4997,220.9002 C544.3007,235.3002 556.3007,246.9002 583.4997,246.9002 C612.3997,246.9002 630.0997,232.0002 630.0997,202.8002 L630.0997,183.8002 C616.4997,200.7002 596.7007,210.5992 569.8997,210.5992 C511.3007,210.5992 468.3997,162.7002 468.3997,105.8002 C468.3997,48.9002 511.3007,1.0002 569.8997,1.0002 C596.7007,1.0002 616.5007,10.9002 630.0997,27.8002 L630.0997,6.8002 L690.3997,6.8002 L690.3997,6.7002 Z" id="Fill-16"></path>
            </g>
        </g>
    </g>
</svg>