<svg xmlns="http://www.w3.org/2000/svg" width="285" height="64" viewBox="0 0 285 64">
    <g fill="none" fill-rule="evenodd">
        <path fill="#000" d="M72.742 40.81c-3.674 0-7.296-1.715-9.591-4.931-3.775-5.291-2.551-12.673 2.729-16.456 2.07-1.483 4.46-2.196 6.83-2.196 3.674 0 7.296 1.714 9.59 4.93 3.776 5.291 2.552 12.674-2.728 16.457-2.07 1.482-4.461 2.196-6.83 2.196M27.116 1.748c-2.214 0-4.435.27-6.613.817l11.01 15.431 4.007 5.617.061.086 3.313 4.643 11.01 15.431.003-.005c.234.363.476.722.73 1.077 5.294 7.42 13.65 11.376 22.126 11.376 5.466 0 10.98-1.645 15.756-5.067 12.18-8.727 15.004-25.757 6.296-37.963C89.52 5.771 81.164 1.816 72.689 1.816c-5.466 0-10.981 1.645-15.757 5.067-2.844 2.038-5.178 4.529-6.974 7.305-.233-.36-.472-.719-.724-1.072C43.942 5.7 35.588 1.748 27.116 1.748"/>
        <path fill="#0CED71" d="M14.641 4.792c-1.127.586-2.227 1.254-3.29 2.015C-.829 15.534-3.653 32.564 5.056 44.77c5.294 7.42 13.651 11.375 22.126 11.375 5.466 0 10.981-1.645 15.757-5.066 1.062-.762 2.048-1.59 2.967-2.468l-9.163-12.843c-.738 1.044-1.656 1.986-2.752 2.77-2.07 1.483-4.46 2.197-6.83 2.197-3.674 0-7.296-1.715-9.591-4.931-3.775-5.291-2.55-12.673 2.729-16.456 1.095-.785 2.281-1.351 3.506-1.713L14.64 4.792z"/>
        <path fill="#000" d="M123.015 20.34v-4.12h3.869c1.254 0 2.125.802 2.125 2.06 0 1.187-.87 2.06-2.125 2.06h-3.869zm0-9.43V7.07h3.206c1.116 0 1.987.733 1.987 1.92 0 1.257-.906 1.92-1.987 1.92h-3.206zm3.38-9.428h-9.618v24.445h10.28c4.95 0 8.19-2.828 8.19-7.159 0-2.48-1.185-4.365-3.067-5.482 1.43-1.118 2.266-2.76 2.266-4.855 0-4.33-3.206-6.949-8.05-6.949zM147.827 8.117c-2.334 0-4.53 1.222-5.227 3.597V8.466h-5.785v17.461h5.785v-7.229c0-3.043 2.268-4.219 4.38-4.219.287 0 .572.022.847.064V8.117zM149.326 25.927h5.785V8.467h-5.785v17.46zM152.218.364c-1.812 0-3.345 1.502-3.345 3.318s1.533 3.352 3.345 3.352c1.813 0 3.346-1.536 3.346-3.352 0-1.816-1.533-3.318-3.346-3.318zM164.346 7.977c-3.555 0-7.005 1.921-7.005 5.867 0 6.182 8.503 5.03 8.503 6.845 0 .629-.557.943-1.568.943-1.359 0-2.265-.629-2.718-1.92l-5.053 2.549c1.394 2.968 4.147 4.155 7.806 4.155 3.555 0 7.527-1.501 7.527-5.867 0-6.635-8.642-5.064-8.642-6.984 0-.524.488-.838 1.29-.838.975 0 1.672.524 2.16 1.501l4.879-2.2c-1.429-2.863-4.043-4.05-7.179-4.05M178.425 15.311c.488-1.606 1.742-2.445 3.415-2.445 1.394 0 2.753.63 3.276 2.445h-6.69zm3.345-7.334c-5.436 0-9.27 4.016-9.27 9.255 0 5.168 3.73 9.184 9.758 9.184 3.102 0 5.75-1.047 7.493-3.248l-4.182-2.933c-.836.803-1.917 1.222-3.171 1.222-1.673 0-3.206-.454-3.903-2.13h12.023c.174-.733.243-1.432.243-2.165 0-5.239-3.763-9.185-8.99-9.185zM203.551 8.117c-2.335 0-4.53 1.222-5.227 3.597V8.466h-5.785v17.461h5.785v-7.229c0-3.043 2.268-4.219 4.38-4.219.287 0 .572.022.847.064V8.117zM211.532 1.482L205.294 1.482 205.294 25.927 219.93 25.927 219.93 19.886 211.532 19.886zM229.723 21.003c-2.161 0-3.66-1.536-3.66-3.806s1.499-3.807 3.66-3.807c2.16 0 3.659 1.537 3.659 3.807s-1.499 3.806-3.66 3.806m-1.289-13.026c-4.67 0-8.19 3.982-8.19 9.22s3.52 9.22 8.19 9.22c2.23 0 3.834-.769 4.949-2.096v1.606h5.785V8.467h-5.785v1.606c-1.115-1.327-2.718-2.096-4.949-2.096M128.556 31.309c-7.388 0-12.72 5.553-12.72 12.747s5.332 12.746 12.72 12.746c4.496 0 8.434-2.27 10.56-5.797l-5.402-3.143c-.941 1.781-2.893 2.829-5.158 2.829-3.938 0-6.517-2.724-6.517-6.635 0-3.912 2.58-6.635 6.517-6.635 2.265 0 4.217 1.047 5.158 2.793l5.401-3.108c-2.125-3.527-6.098-5.797-10.559-5.797M146.504 31.833h-5.785v24.445h5.785V46.99c0-2.095 1.08-3.178 2.857-3.178 1.499 0 2.614.873 2.614 2.759v9.708h5.785V45.837c0-5.03-2.823-7.509-6.412-7.509-2.16 0-3.868.839-4.844 2.235v-8.73zM168.807 51.354c-2.16 0-3.659-1.536-3.659-3.806s1.499-3.807 3.66-3.807c2.16 0 3.658 1.537 3.658 3.807s-1.498 3.806-3.659 3.806m-1.29-13.026c-4.669 0-8.189 3.982-8.189 9.22s3.52 9.22 8.19 9.22c2.23 0 3.833-.769 4.948-2.096v1.606h5.785v-17.46h-5.785v1.606c-1.115-1.327-2.718-2.096-4.948-2.096M180.9 56.278h5.784v-17.46H180.9v17.46zm5.784-24.445H180.9l-3.207 5.413h5.054l1.045-1.712 1.046 1.712h5.053l-3.207-5.413zM199.962 38.328c-2.16 0-3.868.839-4.844 2.235v-1.746h-5.785v17.461h5.785V46.99c0-2.095 1.08-3.178 2.857-3.178 1.499 0 2.614.873 2.614 2.759v9.708h5.785V45.836c0-5.028-2.823-7.508-6.412-7.508M213.867 45.662c.488-1.606 1.742-2.445 3.415-2.445 1.394 0 2.753.63 3.276 2.445h-6.691zm3.345-7.334c-5.436 0-9.27 4.016-9.27 9.255 0 5.168 3.73 9.184 9.758 9.184 3.102 0 5.75-1.047 7.493-3.248l-4.182-2.933c-.837.803-1.917 1.222-3.172 1.222-1.672 0-3.206-.454-3.903-2.13h12.023c.174-.733.244-1.432.244-2.165 0-5.239-3.764-9.185-8.99-9.185zM229.967 49.503c-2.021 0-3.659 1.642-3.659 3.632 0 2.026 1.638 3.632 3.66 3.632 1.986 0 3.623-1.606 3.623-3.632 0-1.99-1.637-3.632-3.624-3.632M243.035 51.18c-1.986 0-3.485-1.467-3.485-3.632s1.499-3.632 3.485-3.632c2.022 0 3.52 1.467 3.52 3.632s-1.498 3.632-3.52 3.632m0-12.852c-5.157 0-9.304 4.016-9.304 9.22 0 5.203 4.182 9.22 9.304 9.22 5.193 0 9.305-4.017 9.305-9.22 0-5.204-4.112-9.22-9.305-9.22M265.2 38.468c-2.336 0-4.531 1.222-5.228 3.597v-3.248h-5.785v17.461h5.785V49.05c0-3.043 2.268-4.219 4.38-4.219.287 0 .571.022.847.064v-6.426zM275.027 50.83c-2.195 0-3.694-1.536-3.694-3.632 0-2.095 1.499-3.631 3.694-3.631s3.694 1.536 3.694 3.631c0 2.096-1.499 3.633-3.694 3.633m-1.185-12.503c-4.844 0-8.294 4.017-8.294 8.87 0 4.855 3.45 8.87 8.294 8.87 2.16 0 3.764-.802 4.879-2.164v1.676c0 2.165-1.568 3.143-3.52 3.143-1.882 0-2.927-.768-3.694-1.99l-4.809 2.793c1.568 2.829 4.774 4.26 8.573 4.26 4.565 0 9.165-2.374 9.165-8.206V38.817h-5.715v1.676c-1.115-1.361-2.718-2.165-4.879-2.165"/>
        <path fill="#000" d="M123.015 20.34v-4.12h3.869c1.254 0 2.125.802 2.125 2.06 0 1.187-.87 2.06-2.125 2.06h-3.869zm0-9.43V7.07h3.206c1.116 0 1.987.733 1.987 1.92 0 1.257-.906 1.92-1.987 1.92h-3.206zm3.38-9.428h-9.618v24.445h10.28c4.95 0 8.19-2.828 8.19-7.159 0-2.48-1.185-4.365-3.067-5.482 1.43-1.118 2.266-2.76 2.266-4.855 0-4.33-3.206-6.949-8.05-6.949zM147.827 8.117c-2.334 0-4.53 1.222-5.227 3.597V8.466h-5.785v17.461h5.785v-7.229c0-3.043 2.268-4.219 4.38-4.219.287 0 .572.022.847.064V8.117zM149.326 25.927h5.785V8.467h-5.785v17.46zM152.218.364c-1.812 0-3.345 1.502-3.345 3.318s1.533 3.352 3.345 3.352c1.813 0 3.346-1.536 3.346-3.352 0-1.816-1.533-3.318-3.346-3.318zM164.346 7.977c-3.555 0-7.005 1.921-7.005 5.867 0 6.182 8.503 5.03 8.503 6.845 0 .629-.557.943-1.568.943-1.359 0-2.265-.629-2.718-1.92l-5.053 2.549c1.394 2.968 4.147 4.155 7.806 4.155 3.555 0 7.527-1.501 7.527-5.867 0-6.635-8.642-5.064-8.642-6.984 0-.524.488-.838 1.29-.838.975 0 1.672.524 2.16 1.501l4.879-2.2c-1.429-2.863-4.043-4.05-7.179-4.05M178.425 15.311c.488-1.606 1.742-2.445 3.415-2.445 1.394 0 2.753.63 3.276 2.445h-6.69zm3.345-7.334c-5.436 0-9.27 4.016-9.27 9.255 0 5.168 3.73 9.184 9.758 9.184 3.102 0 5.75-1.047 7.493-3.248l-4.182-2.933c-.836.803-1.917 1.222-3.171 1.222-1.673 0-3.206-.454-3.903-2.13h12.023c.174-.733.243-1.432.243-2.165 0-5.239-3.763-9.185-8.99-9.185zM203.551 8.117c-2.335 0-4.53 1.222-5.227 3.597V8.466h-5.785v17.461h5.785v-7.229c0-3.043 2.268-4.219 4.38-4.219.287 0 .572.022.847.064V8.117zM211.532 1.482L205.294 1.482 205.294 25.927 219.93 25.927 219.93 19.886 211.532 19.886zM229.723 21.003c-2.161 0-3.66-1.536-3.66-3.806s1.499-3.807 3.66-3.807c2.16 0 3.659 1.537 3.659 3.807s-1.499 3.806-3.66 3.806m-1.289-13.026c-4.67 0-8.19 3.982-8.19 9.22s3.52 9.22 8.19 9.22c2.23 0 3.834-.769 4.949-2.096v1.606h5.785V8.467h-5.785v1.606c-1.115-1.327-2.718-2.096-4.949-2.096M128.556 31.309c-7.388 0-12.72 5.553-12.72 12.747s5.332 12.746 12.72 12.746c4.496 0 8.434-2.27 10.56-5.797l-5.402-3.143c-.941 1.781-2.893 2.829-5.158 2.829-3.938 0-6.517-2.724-6.517-6.635 0-3.912 2.58-6.635 6.517-6.635 2.265 0 4.217 1.047 5.158 2.793l5.401-3.108c-2.125-3.527-6.098-5.797-10.559-5.797M146.504 31.833h-5.785v24.445h5.785V46.99c0-2.095 1.08-3.178 2.857-3.178 1.499 0 2.614.873 2.614 2.759v9.708h5.785V45.837c0-5.03-2.823-7.509-6.412-7.509-2.16 0-3.868.839-4.844 2.235v-8.73zM168.807 51.354c-2.16 0-3.659-1.536-3.659-3.806s1.499-3.807 3.66-3.807c2.16 0 3.658 1.537 3.658 3.807s-1.498 3.806-3.659 3.806m-1.29-13.026c-4.669 0-8.189 3.982-8.189 9.22s3.52 9.22 8.19 9.22c2.23 0 3.833-.769 4.948-2.096v1.606h5.785v-17.46h-5.785v1.606c-1.115-1.327-2.718-2.096-4.948-2.096M180.9 56.278h5.784v-17.46H180.9v17.46zm5.784-24.445H180.9l-3.207 5.413h5.054l1.045-1.712 1.046 1.712h5.053l-3.207-5.413zM199.962 38.328c-2.16 0-3.868.839-4.844 2.235v-1.746h-5.785v17.461h5.785V46.99c0-2.095 1.08-3.178 2.857-3.178 1.499 0 2.614.873 2.614 2.759v9.708h5.785V45.836c0-5.028-2.823-7.508-6.412-7.508M213.867 45.662c.488-1.606 1.742-2.445 3.415-2.445 1.394 0 2.753.63 3.276 2.445h-6.691zm3.345-7.334c-5.436 0-9.27 4.016-9.27 9.255 0 5.168 3.73 9.184 9.758 9.184 3.102 0 5.75-1.047 7.493-3.248l-4.182-2.933c-.837.803-1.917 1.222-3.172 1.222-1.672 0-3.206-.454-3.903-2.13h12.023c.174-.733.244-1.432.244-2.165 0-5.239-3.764-9.185-8.99-9.185zM229.967 49.503c-2.021 0-3.659 1.642-3.659 3.632 0 2.026 1.638 3.632 3.66 3.632 1.986 0 3.623-1.606 3.623-3.632 0-1.99-1.637-3.632-3.624-3.632M243.035 51.18c-1.986 0-3.485-1.467-3.485-3.632s1.499-3.632 3.485-3.632c2.022 0 3.52 1.467 3.52 3.632s-1.498 3.632-3.52 3.632m0-12.852c-5.157 0-9.304 4.016-9.304 9.22 0 5.203 4.182 9.22 9.304 9.22 5.193 0 9.305-4.017 9.305-9.22 0-5.204-4.112-9.22-9.305-9.22M265.2 38.468c-2.336 0-4.531 1.222-5.228 3.597v-3.248h-5.785v17.461h5.785V49.05c0-3.043 2.268-4.219 4.38-4.219.287 0 .571.022.847.064v-6.426zM275.027 50.83c-2.195 0-3.694-1.536-3.694-3.632 0-2.095 1.499-3.631 3.694-3.631s3.694 1.536 3.694 3.631c0 2.096-1.499 3.633-3.694 3.633m-1.185-12.503c-4.844 0-8.294 4.017-8.294 8.87 0 4.855 3.45 8.87 8.294 8.87 2.16 0 3.764-.802 4.879-2.164v1.676c0 2.165-1.568 3.143-3.52 3.143-1.882 0-2.927-.768-3.694-1.99l-4.809 2.793c1.568 2.829 4.774 4.26 8.573 4.26 4.565 0 9.165-2.374 9.165-8.206V38.817h-5.715v1.676c-1.115-1.361-2.718-2.165-4.879-2.165"/>
    </g>
</svg>
