<svg xmlns="http://www.w3.org/2000/svg" width="285" height="64" viewBox="0 0 100 64">
    <g fill="none" fill-rule="evenodd">
        <path fill="#030303" d="M72.742 40.81c-3.674 0-7.296-1.715-9.591-4.931-3.775-5.291-2.551-12.673 2.729-16.456 2.07-1.483 4.46-2.196 6.83-2.196 3.674 0 7.296 1.714 9.59 4.93 3.776 5.291 2.552 12.674-2.728 16.457-2.07 1.482-4.461 2.196-6.83 2.196M27.116 1.748c-2.214 0-4.435.27-6.613.817l11.01 15.431 4.007 5.617.061.086 3.313 4.643 11.01 15.431.003-.005c.234.363.476.722.73 1.077 5.294 7.42 13.65 11.376 22.126 11.376 5.466 0 10.98-1.645 15.756-5.067 12.18-8.727 15.004-25.757 6.296-37.963C89.52 5.771 81.164 1.816 72.689 1.816c-5.466 0-10.981 1.645-15.757 5.067-2.844 2.038-5.178 4.529-6.974 7.305-.233-.36-.472-.719-.724-1.072C43.942 5.7 35.588 1.748 27.116 1.748"/>
        <path fill="#0CED71" d="M14.641 4.792c-1.127.586-2.227 1.254-3.29 2.015C-.829 15.534-3.653 32.564 5.056 44.77c5.294 7.42 13.651 11.375 22.126 11.375 5.466 0 10.981-1.645 15.757-5.066 1.062-.762 2.048-1.59 2.967-2.468l-9.163-12.843c-.738 1.044-1.656 1.986-2.752 2.77-2.07 1.483-4.46 2.197-6.83 2.197-3.674 0-7.296-1.715-9.591-4.931-3.775-5.291-2.55-12.673 2.729-16.456 1.095-.785 2.281-1.351 3.506-1.713L14.64 4.792z"/>
    </g>
</svg>
