<svg xmlns="http://www.w3.org/2000/svg" width="41" height="41" viewBox="0 0 41 41">
    <g fill="none" fill-rule="evenodd">
        <path fill="#0CED71" fill-rule="nonzero" d="M20.5 0C12.277 0 5.637 6.784 5.637 15.125c0 3.179.976 6.663 2.62 9.136l.18.263L20.5 40.25l12.064-15.726.037-.053c1.736-2.493 2.761-6.05 2.761-9.346C35.362 6.784 28.723 0 20.5 0zm0 5.638c5.082 0 9.225 4.233 9.225 9.487l-.002.227c-.045 2.05-.687 4.277-1.64 5.738l-.084.122-7.499 9.776-7.5-9.776.025.037c-1.042-1.496-1.75-3.962-1.75-6.124 0-5.254 4.143-9.488 9.225-9.488z"/>
        <path fill="#0C0C0C" d="M18.705 -6.13L22.744 -6.15 22.489 46.362 18.45 46.382z" transform="scale(1 -1) rotate(45 69.161 0)"/>
        <path fill="#0C0C0C" d="M18.705 -6.13L22.744 -6.15 22.489 46.362 18.45 46.382z" transform="rotate(-135 20.597 20.116)"/>
    </g>
</svg>
