<svg xmlns="http://www.w3.org/2000/svg" width="26" height="30" viewBox="0 0 26 30">
    <g fill="#030303">
        <path d="M25.35 6.65l-6-6C19.26.553 19.133.498 19 .5H4.43c-1.064.005-1.925.866-1.93 1.93V12c0 .276.224.5.5.5s.5-.224.5-.5V2.43c0-.514.416-.93.93-.93H18.5V7c0 .276.224.5.5.5h5.5v20.07c0 .514-.416.93-.93.93H4.43c-.514 0-.93-.416-.93-.93V25c0-.276-.224-.5-.5-.5s-.5.224-.5.5v2.57c.005 1.064.866 1.925 1.93 1.93h19.14c1.064-.005 1.925-.866 1.93-1.93V7c.002-.133-.053-.26-.15-.35zM19.5 2.21l4.29 4.29H19.5V2.21z"/>
        <path d="M10.66 16.71h-.88v3.57h1c.525.035 1.045-.125 1.46-.45.35-.35.533-.835.5-1.33-.03-1.2-.74-1.79-2.08-1.79zM5.57 16.69h-.9v2.09h1c.358.046.718-.055 1-.28.216-.218.335-.513.33-.82.027-.298-.102-.589-.34-.77-.335-.175-.713-.251-1.09-.22z"/>
        <path d="M21.5 21.88v-6.76c.003-.43-.167-.844-.472-1.148-.304-.305-.718-.475-1.148-.472H2.12c-.43-.003-.844.167-1.148.472-.305.304-.475.718-.472 1.148v6.76c-.003.43.167.844.472 1.148.304.305.718.475 1.148.472h17.76c.43.003.844-.167 1.148-.472.305-.304.475-.718.472-1.148zM7.3 19.14c-.502.33-1.1.485-1.7.44h-.93v1.53h-.88v-5.22h1.79c.613-.055 1.226.108 1.73.46.391.356.594.873.55 1.4.042.526-.166 1.04-.56 1.39zm5.57 1.26c-.627.518-1.43.772-2.24.71H8.9v-5.22h1.79c.778-.051 1.547.195 2.15.69.52.487.797 1.179.76 1.89.035.717-.23 1.416-.73 1.93zm5.33-3.69h-2.59v1.44h2.31V19h-2.31v2.15h-.88v-5.26h3.48l-.01.82z"/>
    </g>
</svg>
