<svg xmlns="http://www.w3.org/2000/svg" width="42" height="38" viewBox="0 0 42 38">
    <g fill="none">
        <path fill="#000" d="M0 18.803v-4.178h4.043V8.357c0-2.216.852-4.342 2.368-5.909C7.928.88 9.984 0 12.128 0h16.171c2.145 0 4.202.88 5.718 2.448 1.516 1.567 2.367 3.693 2.367 5.91v6.267h4.043v4.178H0z" transform="translate(.786 .667)"/>
        <path fill="#0CED71" d="M30.398 20.687c2.162 0 4.234.842 5.763 2.34 1.528 1.5 2.386 3.53 2.386 5.65 0 2.118-.858 4.151-2.386 5.653-1.529 1.498-3.6 2.337-5.763 2.337-4.363 0-8.147-3.575-8.147-7.99h-4.075c0 1.939-.72 3.81-2.024 5.267-1.304 1.452-3.103 2.4-5.064 2.65-1.96.252-3.946-.203-5.59-1.282-1.643-1.075-2.83-2.701-3.34-4.573-.512-1.873-.311-3.864.564-5.602.875-1.739 2.365-3.105 4.191-3.847 1.827-.74 3.866-.805 5.738-.18 1.872.623 3.448 1.893 4.436 3.572h6.253c.715-1.215 1.744-2.224 2.983-2.926 1.24-.7 2.645-1.07 4.075-1.069z" transform="translate(.786 .667)"/>
    </g>
</svg>
