<svg xmlns="http://www.w3.org/2000/svg" width="60" height="60" viewBox="0 0 60 60">
    <path fill="#0DB3FD" d="M58.125 23.75c-.497 0-.974.197-1.326.55-.352.35-.55.828-.549 1.325V27.5h-5.16c-.456-3.888-1.984-7.572-4.412-10.642l3.651-3.652 1.47 1.245c.474.474 1.164.66 1.812.487.647-.173 1.153-.68 1.327-1.327.173-.647-.013-1.338-.487-1.812L48.2 5.55c-.474-.473-1.164-.658-1.811-.485-.647.173-1.152.679-1.326 1.326-.173.647.012 1.337.485 1.81l1.245 1.47-3.652 3.652c-3.07-2.428-6.754-3.956-10.642-4.412V3.75h1.875c1.036 0 1.875-.84 1.875-1.875C36.25.839 35.41 0 34.375 0h-8.75c-1.036 0-1.875.84-1.875 1.875 0 1.036.84 1.875 1.875 1.875H27.5v5.16c-3.888.456-7.572 1.984-10.642 4.412L13.206 9.67l1.245-1.47c.473-.473.658-1.163.485-1.81-.173-.647-.679-1.153-1.326-1.326-.647-.173-1.337.012-1.81.485L5.692 11.8c-.729.733-.727 1.918.004 2.649.73.73 1.915.732 2.648.003l1.326-1.245 3.651 3.652c-2.428 3.07-3.956 6.754-4.412 10.642H3.75v-1.875c0-1.036-.84-1.875-1.875-1.875C.839 23.75 0 24.59 0 25.625v8.75c0 1.036.84 1.875 1.875 1.875 1.036 0 1.875-.84 1.875-1.875V32.5h5.16c.456 3.888 1.984 7.572 4.412 10.642l-3.651 3.652-1.47-1.245c-.732-.73-1.918-.73-2.65.002-.732.731-.732 1.917-.002 2.65l6.25 6.25c.474.473 1.164.658 1.811.485.647-.173 1.153-.679 1.326-1.326.173-.647-.012-1.337-.485-1.81l-1.245-1.47 3.652-3.652c3.07 2.428 6.754 3.956 10.642 4.412v5.16h-1.875c-1.036 0-1.875.84-1.875 1.875 0 1.036.84 1.875 1.875 1.875h8.75c1.036 0 1.875-.84 1.875-1.875 0-1.036-.84-1.875-1.875-1.875H32.5v-5.16c3.888-.456 7.572-1.984 10.642-4.412l3.652 3.652-1.245 1.47c-.732.732-.732 1.919 0 2.65.733.733 1.92.733 2.652 0l6.25-6.25c.474-.473.66-1.164.487-1.811-.174-.648-.68-1.154-1.327-1.327-.648-.173-1.338.013-1.812.487l-1.47 1.245-3.651-3.652c2.428-3.07 3.956-6.754 4.412-10.642h5.16v1.875c0 1.036.84 1.875 1.875 1.875 1.036 0 1.875-.84 1.875-1.875v-8.75c0-.497-.197-.974-.55-1.326-.35-.352-.828-.55-1.325-.549zm-35 1.25c-1.77 0-3.365-1.066-4.042-2.7-.677-1.636-.303-3.517.948-4.769 1.252-1.25 3.133-1.625 4.768-.948 1.635.677 2.701 2.272 2.701 4.042 0 1.16-.46 2.273-1.281 3.094-.82.82-1.934 1.281-3.094 1.281zM37.5 41.25c-1.38 0-2.5-1.12-2.5-2.5s1.12-2.5 2.5-2.5 2.5 1.12 2.5 2.5-1.12 2.5-2.5 2.5z"/>
</svg>
